# xmcd CD database file
#
# Track frame offsets:
#	150
#	12707
#	49607
#	68637
#	83032
#	96542
#	134730
#	156727
#	170610
#	182690
#	200340
#	222372
#
# Disc length: 3162 seconds
#
# Revision: 0
# Processed by: cddbd v1.4PL0 Copyright (c) Steve Scherf et al.
# Submitted via: CDex 1.40Beta8
#
DISCID=b50c580c
DTITLE=Various Artist - Slow and Easy: The Essence of the Blues
DYEAR=1999
DGENRE=Blues
TTITLE0=Trouble Blues (Charles Brown)
TTITLE1=Funny how Time Slips Away (Junior Parker)
TTITLE2=Country Boy (Muddy Waters)
TTITLE3=Nobody Knows the Way I Feel this Morning (Joe Williams)
TTITLE4=Straighten Up and Fly Right (Carmen McRae)
TTITLE5=Whiskey Drinking Woman (Jimmy Witherspoon)
TTITLE6=Why My Baby (T-Bone Walker)
TTITLE7=Five Long Years (Junior Parker)
TTITLE8=Slow and Easy (Lonnie Johnson)
TTITLE9=Grand Spivey (Victoria Spivey)
TTITLE10=Goin' To Chicago (Joe Williams with the Count Basie Orchestra)
TTITLE11=Baby, Let Me Hold Your Hand (Charles Brown)
EXTD=YEAR: 1999 ID3G: 0
EXTT0=
EXTT1=
EXTT2=
EXTT3=
EXTT4=
EXTT5=
EXTT6=
EXTT7=
EXTT8=
EXTT9=
EXTT10=
EXTT11=
PLAYORDER=
